<svg width="16" height="17" viewBox="0 0 16 17" fill="none" xmlns="http://www.w3.org/2000/svg">
<mask id="mask0_16_829" style="mask-type:alpha" maskUnits="userSpaceOnUse" x="0" y="0" width="16" height="17">
<rect y="0.5" width="16" height="16" fill="#D9D9D9"/>
</mask>
<g mask="url(#mask0_16_829)">
<path d="M10.5334 6.63337L4.96673 12.1834C4.80007 12.35 4.59729 12.4361 4.3584 12.4417C4.11951 12.4473 3.91118 12.3611 3.7334 12.1834C3.56673 12.0167 3.4834 11.8111 3.4834 11.5667C3.4834 11.3223 3.56673 11.1167 3.7334 10.95L9.2834 5.38337H4.75006C4.50562 5.38337 4.29729 5.29725 4.12507 5.12503C3.95284 4.95281 3.86673 4.74448 3.86673 4.50003C3.86673 4.25559 3.95284 4.04725 4.12507 3.87503C4.29729 3.70281 4.50562 3.6167 4.75006 3.6167H11.4167C11.6612 3.6167 11.8695 3.70281 12.0417 3.87503C12.214 4.04725 12.3001 4.25559 12.3001 4.50003V11.1667C12.3001 11.4111 12.214 11.6195 12.0417 11.7917C11.8695 11.9639 11.6612 12.05 11.4167 12.05C11.1723 12.05 10.964 11.9639 10.7917 11.7917C10.6195 11.6195 10.5334 11.4111 10.5334 11.1667V6.63337Z" fill="#C6DEB2"/>
</g>
</svg>
