<svg width="37" height="35" viewBox="0 0 37 35" fill="none" xmlns="http://www.w3.org/2000/svg">
<rect width="37" height="35" rx="17.5" fill="#86A76A"/>
<mask id="mask0_16_739" style="mask-type:alpha" maskUnits="userSpaceOnUse" x="6" y="5" width="25" height="25">
<rect x="6.38184" y="5.04102" width="24" height="24" fill="#D9D9D9"/>
</mask>
<g mask="url(#mask0_16_739)">
<path d="M18.3791 27.716C18.1976 27.716 18.0311 27.6827 17.8794 27.616C17.7277 27.5494 17.5869 27.4494 17.4569 27.316L11.6819 21.566C11.4319 21.316 11.3069 21.0077 11.3069 20.641C11.3069 20.2744 11.4281 19.966 11.6704 19.716C11.9346 19.466 12.2484 19.341 12.6119 19.341C12.9752 19.341 13.2819 19.466 13.5319 19.716L17.0569 23.241V18.566C17.0569 18.1994 17.1861 17.8869 17.4444 17.6285C17.7027 17.3702 18.0152 17.241 18.3819 17.241C18.7486 17.241 19.0611 17.3702 19.3194 17.6285C19.5777 17.8869 19.7069 18.1994 19.7069 18.566V23.241L23.2319 19.716C23.4777 19.466 23.7851 19.341 24.1539 19.341C24.5226 19.341 24.8319 19.466 25.0819 19.716C25.3319 19.966 25.4569 20.2744 25.4569 20.641C25.4569 21.0077 25.3319 21.316 25.0819 21.566L19.3319 27.316C19.1957 27.4494 19.0483 27.5494 18.8896 27.616C18.7308 27.6827 18.5606 27.716 18.3791 27.716ZM18.3819 15.241C18.0152 15.241 17.7027 15.1119 17.4444 14.8535C17.1861 14.5952 17.0569 14.2861 17.0569 13.9263V12.6558C17.0569 12.296 17.1861 11.9869 17.4444 11.7285C17.7027 11.4702 18.0152 11.341 18.3819 11.341C18.7486 11.341 19.0611 11.4702 19.3194 11.7285C19.5777 11.9869 19.7069 12.296 19.7069 12.6558V13.9263C19.7069 14.2861 19.5777 14.5952 19.3194 14.8535C19.0611 15.1119 18.7486 15.241 18.3819 15.241ZM18.3819 9.34104C18.0152 9.34104 17.7027 9.21187 17.4444 8.95354C17.1861 8.69521 17.0569 8.38271 17.0569 8.01604C17.0569 7.64937 17.1861 7.33687 17.4444 7.07854C17.7027 6.82021 18.0152 6.69104 18.3819 6.69104C18.7486 6.69104 19.0611 6.82021 19.3194 7.07854C19.5777 7.33687 19.7069 7.64937 19.7069 8.01604C19.7069 8.38271 19.5777 8.69521 19.3194 8.95354C19.0611 9.21187 18.7486 9.34104 18.3819 9.34104Z" fill="#0C0C0E"/>
</g>
</svg>
