<svg width="16" height="17" viewBox="0 0 16 17" fill="none" xmlns="http://www.w3.org/2000/svg">
<mask id="mask0_16_869" style="mask-type:alpha" maskUnits="userSpaceOnUse" x="0" y="0" width="16" height="17">
<rect y="0.5" width="16" height="16" fill="#D9D9D9"/>
</mask>
<g mask="url(#mask0_16_869)">
<path d="M6.14987 13.0002C5.66398 13.0002 5.24809 12.8272 4.9022 12.4812C4.5562 12.1353 4.3832 11.7194 4.3832 11.2335V3.10016C4.3832 2.61439 4.5562 2.1985 4.9022 1.8525C5.24809 1.5065 5.66398 1.3335 6.14987 1.3335H12.2832C12.769 1.3335 13.1849 1.5065 13.5309 1.8525C13.8769 2.1985 14.0499 2.61439 14.0499 3.10016V11.2335C14.0499 11.7194 13.8769 12.1353 13.5309 12.4812C13.1849 12.8272 12.769 13.0002 12.2832 13.0002H6.14987ZM3.04987 16.1002C2.56398 16.1002 2.14809 15.9272 1.8022 15.5812C1.4562 15.2352 1.2832 14.8193 1.2832 14.3335V5.31683C1.2832 5.07239 1.36931 4.86405 1.54154 4.69183C1.71376 4.51961 1.92209 4.4335 2.16654 4.4335C2.41098 4.4335 2.61931 4.51961 2.79154 4.69183C2.96376 4.86405 3.04987 5.07239 3.04987 5.31683V14.3335H10.0665C10.311 14.3335 10.5193 14.4196 10.6915 14.5918C10.8638 14.7641 10.9499 14.9724 10.9499 15.2168C10.9499 15.4613 10.8638 15.6696 10.6915 15.8418C10.5193 16.0141 10.311 16.1002 10.0665 16.1002H3.04987Z" fill="#C6DEB2"/>
</g>
</svg>
